<svg width="45" height="45" viewBox="0 0 45 45" fill="none" xmlns="http://www.w3.org/2000/svg">
<circle cx="22.5" cy="22.5" r="21.5" fill="#053063"/>
<path d="M45 22.5C45 34.9264 34.9264 45 22.5 45C10.0736 45 0 34.9264 0 22.5C0 10.0736 10.0736 0 22.5 0C34.9264 0 45 10.0736 45 22.5ZM5 22.5C7 33 10.3015 38.5 21.5 38.5C32.6985 38.5 35 39.5 41 22.5C37.5 11.5 34 6 22.5 6C11.3015 6 5 11.3015 5 22.5Z" fill="#F9F9FA"/>
<path fill-rule="evenodd" clip-rule="evenodd" d="M23 1C12.5025 1 4 9.71756 4 20.4806C4 29.1007 9.43875 36.3816 16.9912 38.9628C17.9412 39.1332 18.2975 38.5488 18.2975 38.0375C18.2975 37.5748 18.2738 36.0407 18.2738 34.4092C13.5 35.3102 12.265 33.216 11.885 32.1202C11.6712 31.5602 10.745 29.8313 9.9375 29.3686C9.2725 29.0033 8.3225 28.1024 9.91375 28.078C11.41 28.0537 12.4787 29.4904 12.835 30.0748C14.545 33.0212 17.2763 32.1933 18.3688 31.6819C18.535 30.4157 19.0338 29.5634 19.58 29.0764C15.3525 28.5894 10.935 26.9092 10.935 19.4579C10.935 17.3393 11.6712 15.5861 12.8825 14.2224C12.6925 13.7354 12.0275 11.7387 13.0725 9.06009C13.0725 9.06009 14.6637 8.54873 18.2975 11.0569C19.8175 10.6185 21.4325 10.3994 23.0475 10.3994C24.6625 10.3994 26.2775 10.6185 27.7975 11.0569C31.4313 8.52438 33.0225 9.06009 33.0225 9.06009C34.0675 11.7387 33.4025 13.7354 33.2125 14.2224C34.4237 15.5861 35.16 17.315 35.16 19.4579C35.16 26.9335 30.7188 28.5894 26.4912 29.0764C27.18 29.6852 27.7738 30.854 27.7738 32.6803C27.7738 35.2858 27.75 37.38 27.75 38.0375C27.75 38.5488 28.1062 39.1576 29.0562 38.9628C32.828 37.6571 36.1055 35.1717 38.4275 31.8562C40.7494 28.5408 41.9989 24.5622 42 20.4806C42 9.71756 33.4975 1 23 1Z" fill="#F9F9FA"/>
</svg>
