<svg width="45" height="45" viewBox="0 0 45 45" fill="none" xmlns="http://www.w3.org/2000/svg">
<circle cx="22.5" cy="22.5" r="22.5" fill="#F9F9FA"/>
<path d="M22 9C18.2008 9 17.723 9.0175 16.2303 9.084C14.7375 9.154 13.7207 9.3885 12.83 9.735C11.8957 10.0864 11.0494 10.6377 10.3503 11.3503C9.63813 12.0497 9.08694 12.8959 8.735 13.83C8.3885 14.719 8.15225 15.7375 8.084 17.225C8.0175 18.7212 8 19.1973 8 23.0018C8 26.8027 8.0175 27.2788 8.084 28.7715C8.154 30.2625 8.3885 31.2792 8.735 32.17C9.09375 33.0905 9.5715 33.871 10.3503 34.6497C11.1273 35.4285 11.9078 35.908 12.8282 36.265C13.7207 36.6115 14.7358 36.8477 16.2268 36.916C17.7213 36.9825 18.1972 37 22 37C25.8027 37 26.277 36.9825 27.7715 36.916C29.2607 36.846 30.281 36.6115 31.1718 36.265C32.1055 35.9134 32.9512 35.3621 33.6497 34.6497C34.4285 33.871 34.9062 33.0905 35.265 32.17C35.6098 31.2792 35.846 30.2625 35.916 28.7715C35.9825 27.2788 36 26.8027 36 23C36 19.1972 35.9825 18.7213 35.916 17.2268C35.846 15.7375 35.6098 14.719 35.265 13.83C34.9131 12.8959 34.3619 12.0497 33.6497 11.3503C32.9509 10.6374 32.1045 10.0861 31.17 9.735C30.2775 9.3885 29.259 9.15225 27.7698 9.084C26.2752 9.0175 25.801 9 21.9965 9H22.0018H22ZM20.7452 11.5235H22.0018C25.7397 11.5235 26.1825 11.5358 27.6577 11.604C29.0227 11.6653 29.7647 11.8945 30.2582 12.0852C30.911 12.339 31.3783 12.6435 31.8682 13.1335C32.3582 13.6235 32.661 14.089 32.9148 14.7435C33.1073 15.2352 33.3347 15.9773 33.396 17.3423C33.4643 18.8175 33.4783 19.2603 33.4783 22.9965C33.4783 26.7327 33.4643 27.1772 33.396 28.6525C33.3347 30.0175 33.1055 30.7577 32.9148 31.2513C32.6903 31.8591 32.332 32.4088 31.8665 32.8595C31.3765 33.3495 30.911 33.6523 30.2565 33.906C29.7665 34.0985 29.0245 34.326 27.6577 34.389C26.1825 34.4555 25.7397 34.4713 22.0018 34.4713C18.2638 34.4713 17.8193 34.4555 16.344 34.389C14.979 34.326 14.2387 34.0985 13.7452 33.906C13.1371 33.6819 12.587 33.3243 12.1353 32.8595C11.6693 32.4081 11.3105 31.8579 11.0852 31.2495C10.8945 30.7577 10.6653 30.0158 10.604 28.6507C10.5375 27.1755 10.5235 26.7327 10.5235 22.993C10.5235 19.255 10.5375 18.814 10.604 17.3387C10.667 15.9737 10.8945 15.2318 11.087 14.7383C11.3407 14.0855 11.6452 13.6182 12.1353 13.1283C12.6252 12.6382 13.0907 12.3355 13.7452 12.0818C14.2387 11.8893 14.979 11.6618 16.344 11.5988C17.6355 11.5393 18.136 11.5218 20.7452 11.52V11.5235ZM29.4743 13.8475C29.2536 13.8475 29.0352 13.891 28.8313 13.9754C28.6275 14.0598 28.4423 14.1836 28.2863 14.3396C28.1303 14.4956 28.0066 14.6808 27.9221 14.8846C27.8377 15.0884 27.7943 15.3069 27.7943 15.5275C27.7943 15.7481 27.8377 15.9666 27.9221 16.1704C28.0066 16.3742 28.1303 16.5594 28.2863 16.7154C28.4423 16.8714 28.6275 16.9952 28.8313 17.0796C29.0352 17.164 29.2536 17.2075 29.4743 17.2075C29.9198 17.2075 30.3471 17.0305 30.6622 16.7154C30.9773 16.4004 31.1542 15.9731 31.1542 15.5275C31.1542 15.0819 30.9773 14.6546 30.6622 14.3396C30.3471 14.0245 29.9198 13.8475 29.4743 13.8475ZM22.0018 15.811C21.0481 15.7961 20.1011 15.9711 19.2157 16.3257C18.3304 16.6804 17.5244 17.2076 16.8448 17.8767C16.1651 18.5459 15.6254 19.3435 15.257 20.2232C14.8886 21.1029 14.6988 22.0471 14.6988 23.0009C14.6988 23.9546 14.8886 24.8988 15.257 25.7785C15.6254 26.6583 16.1651 27.4559 16.8448 28.125C17.5244 28.7941 18.3304 29.3214 19.2157 29.676C20.1011 30.0306 21.0481 30.2056 22.0018 30.1908C23.8892 30.1613 25.6894 29.3908 27.0137 28.0457C28.338 26.7005 29.0803 24.8886 29.0803 23.0009C29.0803 21.1132 28.338 19.3012 27.0137 17.9561C25.6894 16.6109 23.8892 15.8404 22.0018 15.811ZM22.0018 18.3328C23.2396 18.3328 24.4267 18.8245 25.302 19.6998C26.1773 20.575 26.669 21.7622 26.669 23C26.669 24.2378 26.1773 25.425 25.302 26.3002C24.4267 27.1755 23.2396 27.6672 22.0018 27.6672C20.7639 27.6672 19.5768 27.1755 18.7015 26.3002C17.8262 25.425 17.3345 24.2378 17.3345 23C17.3345 21.7622 17.8262 20.575 18.7015 19.6998C19.5768 18.8245 20.7639 18.3328 22.0018 18.3328Z" fill="#053063"/>
</svg>
