<svg width="1454" height="477" viewBox="0 0 1454 477" fill="none" xmlns="http://www.w3.org/2000/svg">
<path d="M1182.92 315.42C1183.29 314.659 1183.74 313.919 1184.29 313.2L1256.78 212.021L1257.12 212.184L1411.16 304.791L1411.99 305.318L1373.58 358.916L1182.92 315.42ZM1260.85 206.705L1266.15 199.308C1267.84 197.331 1269.69 195.475 1271.7 193.74C1288.83 178.324 1313.71 171.511 1339.36 174.241L1341.53 147.647C1341.62 145.981 1343.22 144.827 1345.1 144.919C1346.88 145.07 1348.27 146.484 1348.1 148.05L1348.08 148.13L1345.9 175.225C1373.28 179.954 1397.8 194.745 1413.43 215.948L1439.74 203.3C1441.24 202.546 1443.23 203 1444.24 204.412L1444.31 204.513C1445.22 205.984 1444.61 207.788 1443 208.601L1416.95 220.97C1429.25 240.484 1432.59 263.016 1425.1 282.909C1423.15 288.118 1420.49 293.082 1417.24 297.74C1416.69 298.46 1416.17 299.099 1415.71 299.839L1260.85 206.705ZM1329.9 194.444C1325.74 191.807 1320.23 192.576 1317.55 196.013C1314.86 199.451 1315.99 204.518 1319.95 207.193C1323.92 209.788 1329.61 209.061 1332.3 205.624C1332.32 205.543 1332.44 205.404 1332.44 205.404C1335.15 201.886 1334 196.899 1329.9 194.444ZM1400.45 236.952C1396.29 234.315 1390.79 235.084 1388.1 238.522C1385.41 241.959 1386.54 247.026 1390.5 249.701C1394.66 252.338 1400.16 251.569 1402.85 248.132C1402.87 248.051 1403 247.912 1403 247.912C1405.61 244.374 1404.54 239.487 1400.45 236.952Z" fill="#94C654"/>
<mask id="mask0_287_2" style="mask-type:alpha" maskUnits="userSpaceOnUse" x="1176" y="211" width="237" height="236">
<path d="M1411.27 304.668L1412.1 305.195L1339.61 406.373C1333.58 414.87 1320.88 417.121 1311.43 411.419L1296.94 402.714L1290.37 411.931L1271.65 438.04C1265.62 446.537 1252.92 448.787 1243.47 443.086C1234.01 437.384 1231.28 425.961 1237.32 417.464L1256.03 391.355L1262.61 382.139L1239.17 368.017L1232.6 377.233L1213.88 403.342C1207.85 411.839 1195.15 414.09 1185.7 408.388C1176.24 402.687 1173.51 391.264 1179.55 382.767L1198.37 356.598L1204.94 347.382L1190.46 338.677C1181.1 332.996 1178.32 321.392 1184.31 313.056L1256.8 211.878L1257.15 212.041L1411.27 304.668Z" fill="white"/>
</mask>
<g mask="url(#mask0_287_2)">
<path d="M1184.83 316.633L1264.93 212.551L1361.53 266.064L1471.73 411.874L1377.53 390.805L1384.08 362.091L1184.83 316.633Z" fill="url(#paint0_linear_287_2)" fill-opacity="0.63"/>
</g>
<path d="M1223.26 206L1440.5 424H1006.51L1223.26 206Z" fill="url(#paint1_linear_287_2)"/>
<path d="M0.496582 282L266.649 0H0.496582V282Z" fill="url(#paint2_linear_287_2)"/>
<path d="M1413.06 339.706C1410.99 348.954 1400.56 354.55 1389.82 352.193L1357.01 344.75L1341.55 341.211L1308.72 333.841C1298 331.411 1291.13 322.002 1293.24 312.608C1295.31 303.36 1305.74 297.764 1316.48 300.121L1349.31 307.491L1364.77 311.03L1397.6 318.4C1408.38 320.923 1415.23 330.404 1413.06 339.706Z" fill="black"/>
<path d="M1413.06 339.706C1410.99 348.954 1400.56 354.55 1389.82 352.193L1357.01 344.75L1341.55 341.211L1308.72 333.841C1298 331.411 1291.13 322.002 1293.24 312.608C1295.31 303.36 1305.74 297.764 1316.48 300.121L1349.31 307.491L1364.77 311.03L1397.6 318.4C1408.38 320.923 1415.23 330.404 1413.06 339.706Z" fill="#93C653"/>
<mask id="mask1_287_2" style="mask-type:alpha" maskUnits="userSpaceOnUse" x="1292" y="299" width="122" height="54">
<path d="M1413.04 339.665C1410.95 348.928 1400.51 354.542 1389.77 352.193L1356.97 344.772L1341.52 341.244L1308.7 333.897C1297.98 331.474 1291.13 322.06 1293.26 312.65C1295.35 303.387 1305.79 297.773 1316.53 300.123L1349.35 307.47L1364.8 310.998L1397.62 318.345C1408.4 320.86 1415.23 330.348 1413.04 339.665Z" fill="white"/>
</mask>
<g mask="url(#mask1_287_2)">
<path opacity="0.9663" d="M1293.09 265.574L1421.39 295.674L1397.12 396.284L1268.82 366.184L1293.09 265.574Z" fill="url(#paint3_linear_287_2)"/>
</g>
<path d="M266.649 0H1440.5L1006.51 424H0V282.5L266.649 0Z" fill="url(#paint4_linear_287_2)"/>
<defs>
<linearGradient id="paint0_linear_287_2" x1="1316.74" y1="215.315" x2="1260.89" y2="395.729" gradientUnits="userSpaceOnUse">
<stop stop-opacity="0.5"/>
<stop offset="1" stop-opacity="0"/>
</linearGradient>
<linearGradient id="paint1_linear_287_2" x1="1301.47" y1="290" x2="1005.83" y2="422.467" gradientUnits="userSpaceOnUse">
<stop stop-color="#8466FF"/>
<stop offset="1" stop-color="#00AFFF"/>
</linearGradient>
<linearGradient id="paint2_linear_287_2" x1="0.496582" y1="282" x2="135.081" y2="0.721847" gradientUnits="userSpaceOnUse">
<stop stop-color="#00AFFF"/>
<stop offset="1" stop-color="#945DFF"/>
</linearGradient>
<linearGradient id="paint3_linear_287_2" x1="1310.55" y1="276.854" x2="1346.54" y2="377.64" gradientUnits="userSpaceOnUse">
<stop stop-color="white" stop-opacity="0.2"/>
<stop offset="1" stop-color="white" stop-opacity="0"/>
</linearGradient>
<linearGradient id="paint4_linear_287_2" x1="1413.19" y1="5.99981" x2="-2.04028" y2="418.706" gradientUnits="userSpaceOnUse">
<stop stop-color="#FF8900"/>
<stop offset="0.523958" stop-color="#EB7646"/>
<stop offset="1" stop-color="#D6648C"/>
<stop offset="1" stop-color="#C757BC"/>
</linearGradient>
</defs>
</svg>
